PathFileType	4	(X/Y/Z)	Patient4_TMGait_0pt4_03_right_18.trc.trc
DataRate	CameraRate	NumFrames	NumMarkers	Units	OrigDataRate	OrigDataStartFrame	OrigNumFrames
75.268817204301	75.268817204301	4	33	mm	75.268817204301	1	       141
Frame#	Time	Sacral			L.Shoulder			Chest			R.Shoulder			Neck			R.ASIS			L.ASIS			R.Thigh.Superior			R.Thigh.Lateral			R.Thigh.Inferior			R.Patella			L.Thigh.Superior			L.Thigh.Lateral			L.Thigh.Inferior			L.Patella			L.Shank.Superior			L.Shank.Lateral			L.Shank.Inferior			R.Shank.Superior			R.Shank.Lateral			R.Shank.Inferior			R.Heel			R.Midfoot.Superior			R.Midfoot.Lateral			R.Toe			L.Heel			L.Midfoot.Lateral			L.Midfoot.Superior			L.Toe			L.Elbow			L.Wrist			R.Elbow			R.Wrist			
		X1	Y1	Z1	X2	Y2	Z2	X3	Y3	Z3	X4	Y4	Z4	X5	Y5	Z5	X6	Y6	Z6	X7	Y7	Z7	X8	Y8	Z8	X9	Y9	Z9	X10	Y10	Z10	X11	Y11	Z11	X12	Y12	Z12	X13	Y13	Z13	X14	Y14	Z14	X15	Y15	Z15	X16	Y16	Z16	X17	Y17	Z17	X18	Y18	Z18	X19	Y19	Z19	X20	Y20	Z20	X21	Y21	Z21	X22	Y22	Z22	X23	Y23	Z23	X24	Y24	Z24	X25	Y25	Z25	X26	Y26	Z26	X27	Y27	Z27	X28	Y28	Z28	X29	Y29	Z29	X30	Y30	Z30	X31	Y31	Z31	X32	Y32	Z32	X33	Y33	Z33	

1	22.830000000000	850.461568592521	1006.830863611138	424.731082229568	1041.323603825504	1428.212715202549	222.395164124341	1140.827223248989	1363.703727360533	387.343084705500	1057.183690910291	1443.419018955082	558.696402149123	1025.353688494296	1496.207928507049	377.550925013956	1080.458513153910	949.769499292913	542.326218859216	1065.641308501128	960.378611018148	268.377836431380	1161.772848237223	775.231702934874	518.335650347296	1119.204952718147	656.474304387271	596.337204965556	1209.576256684892	613.809085445564	520.043051729893	1224.741375334239	501.683464051388	546.522675920307	1118.594547673374	750.669561043004	295.838850217492	1030.247286175749	633.280779217296	241.153074051790	1118.136438013618	557.108569098230	301.535905656020	1119.399110958716	487.096930912849	312.021265150102	1088.194585891897	414.254516278106	306.314673899748	993.444993167113	303.700353870722	258.165699655472	1038.100121156683	190.685548357635	328.846473298354	1146.632928593190	428.977778590545	556.300056627094	1023.843900204391	396.873855129181	618.618719937661	1004.596308493392	286.603286688655	574.062005680675	804.145031068831	241.950482580813	550.420829395461	963.087070048708	159.189852761970	588.641013243750	854.107599530794	172.138233648684	621.710481293081	1012.140130789110	37.856821423720	611.370951826463	905.293873574031	39.264616374470	374.673564122887	976.087853851042	35.501375338405	291.295951117297	1060.923337167786	95.907802421196	315.986328795900	1188.400591596799	41.171131577066	281.899221284195	1050.661151849484	1082.781638617468	87.622506972921	1196.276928562064	863.077462553250	81.197988368858	1007.885925421994	1101.942558145985	690.319978720484	1098.309432460758	856.462043500929	704.738462656050	
2	22.843285714286	849.350402335200	1007.919089576030	422.943863079934	1042.553210751559	1429.019641370329	221.631847499277	1140.389600799788	1364.404678675420	387.455161667524	1055.307588411743	1444.219998500660	557.943035073521	1025.170141951432	1496.984750485093	376.726025044323	1078.711492035371	951.150968241421	542.007118547652	1065.631822853741	961.019664394288	267.887097158028	1161.261266933603	778.159380855198	517.663136031325	1120.499835343174	659.231894565705	596.196104806137	1210.857510443181	617.318240017521	519.632005668588	1228.095488502866	506.179082766444	546.425067930863	1116.188275064195	750.048420890794	296.070994820868	1026.673767922242	633.593421854605	240.870964323095	1113.398782780614	556.654634252230	301.706744715803	1113.920218504173	486.737093238030	312.164679574149	1082.768483655420	414.264328846404	306.253092643134	987.912892977938	303.794167146498	258.053557542005	1032.473494558757	190.727630161542	328.825335550451	1152.303661564565	431.579079172477	556.398962524731	1031.213113937352	394.869272643258	619.115935175625	1016.004365870928	284.066193907017	574.694691681320	817.483092746277	231.312866900074	551.653480862505	979.497037630182	155.559614177259	589.015386004694	870.649191499060	164.021557018288	622.883256351798	1033.963821548083	36.912266125966	612.052890814903	899.605109057819	39.282168824181	374.643932159562	970.418220231891	35.510002797163	291.281495421710	1055.227422184381	95.902730629965	315.971001500336	1182.731677340290	41.170539855189	281.872356840854	1056.943812966853	1084.527050626483	85.917296642451	1207.210761228989	868.079797989481	80.870063419012	1001.372911597948	1103.344943451039	688.807586797238	1085.240434634533	856.251586113610	706.693385771933	
3	22.856571428571	848.243420415612	1008.977167126071	421.188287809311	1043.802629609140	1429.791695244372	220.900844037650	1139.975314170642	1365.067000451495	387.592568053229	1053.470552631698	1444.990033824010	557.221034854502	1025.010589968244	1497.732132717664	375.935028743151	1076.946394254495	952.487722318301	541.720367701671	1065.604008401740	961.609997699141	267.435196502401	1160.679624170188	780.982818990847	517.041384096285	1121.640766865650	661.883062268944	596.087968612772	1211.943600118918	620.669605155435	519.257086953132	1231.205208297139	510.572056490273	546.374128764591	1113.775216255801	749.421928815969	296.351147850934	1023.123186427901	633.897782462153	240.593338300643	1108.674662863114	556.193723666697	301.896855738982	1108.451180317583	486.376188619717	312.323032447305	1077.358076270639	414.272705042042	306.200391243740	982.411249148242	303.880270833638	257.941472808394	1026.874171661650	190.766467751017	328.807837745514	1157.800019845827	434.065514863969	556.551225226461	1038.508061563195	392.644379816569	619.674943781611	1027.467005753658	281.333688537686	575.390285802078	831.028906532322	220.262201343020	552.970701453244	996.105236547234	151.781691685877	589.504927757532	887.439397134263	155.646676536670	624.180232103987	1056.085289123519	35.978221116134	612.901639976761	893.950425758249	39.296035593062	374.616037890534	964.781796353508	35.515757388353	291.266964692642	1049.565735140138	95.896603322631	315.957998743830	1177.096653917561	41.172707247543	281.848401392235	1063.061626898043	1086.223640520727	84.268886160929	1218.008958343693	873.094524524616	80.617972246689	994.976198831598	1104.723171373790	687.339997652026	1072.438103596298	856.083876912488	708.576282613079	
4	22.869857142857	847.145269304328	1009.981505315749	419.494108215037	1045.088878824013	1430.489691800319	220.244304178261	1139.611974872250	1365.644789839123	387.785496230464	1051.724335404568	1445.692283287312	556.569799616517	1024.903875038627	1498.416515214837	375.219223922408	1075.155981652111	953.724715629077	541.502930349245	1065.541592261130	962.098985626864	267.063021802453	1159.924660792271	783.546448128805	516.537258100175	1122.407919349108	664.292832001282	596.056244686060	1212.584947122163	623.665085004792	518.967035619343	1233.763192466906	514.722577648695	546.399718503501	1111.356731548642	748.785559664524	296.715209792134	1019.627143977177	634.181492614291	240.328134995644	1103.995534323586	555.719205846352	302.118558110912	1103.026070199374	486.011656462040	312.504570176536	1072.000797604474	414.271974080058	306.163518134723	976.980906413762	303.952029156327	257.830094071823	1021.336373598531	190.796881328725	328.796323273136	1162.900568225223	436.330720000542	556.795001615828	1045.654654207822	390.028172827684	620.351335518546	1039.016845288822	278.305097544960	576.183537639538	845.047816783303	208.542552191573	554.428314207501	1013.085747050676	147.850448389388	590.176803527412	904.744612087387	146.907034383088	625.668889594293	1078.719259275492	35.227269466463	613.991146420417	888.363642121094	39.303504315537	374.591533482927	959.211803823762	35.516030071656	291.252195929553	1043.973489621795	95.887798281488	315.949165301187	1171.529560549540	41.178566386042	281.829286788206	1068.844703187963	1087.811020832344	82.749003061973	1228.504818685897	878.116101598995	80.527084123925	988.834475639518	1106.041335331936	685.970222377934	1060.216740294171	855.985377097577	710.321595326430	
